<svg width="1367" height="196" viewBox="0 0 1367 196" fill="none" xmlns="http://www.w3.org/2000/svg">
<mask id="mask0_3_14059" style="mask-type:alpha" maskUnits="userSpaceOnUse" x="0" y="0" width="1367" height="196">
<path d="M1.16903 183.471L1.1701 183.47L1.17043 183.47L1.50014 183.352V183V0.5H1366.5V182.509L1366.47 182.509L1364.92 182.536L1358.85 182.639C1353.51 182.73 1345.64 182.863 1335.49 183.032C1315.21 183.371 1285.85 183.854 1249.55 184.435C1176.95 185.595 1076.59 187.143 965.556 188.691C743.493 191.786 478.746 194.882 308 194.882C137.25 194.882 60.5202 191.786 26.4829 188.693C17.9746 187.92 12.1434 187.147 8.18254 186.426C4.2047 185.701 2.16056 185.035 1.18719 184.497C0.692895 184.224 0.560549 184.03 0.532263 183.959C0.531715 183.957 0.531107 183.956 0.530485 183.954C0.523453 183.938 0.51469 183.918 0.57204 183.848C0.648178 183.755 0.783592 183.659 0.932134 183.58C1.00119 183.543 1.06354 183.514 1.10796 183.495C1.13 183.486 1.14713 183.479 1.1579 183.475L1.16893 183.471L1.16903 183.471Z" fill="white" stroke="#707070"/>
</mask>
<g mask="url(#mask0_3_14059)">
<path opacity="0.23" d="M1199.44 -117.067C1648.07 -117.067 2011.75 -57.4344 2011.75 16.1266C2011.75 53.9369 1951.07 116.442 1678.81 110.592C1406.54 104.742 1180.96 178.618 853.384 151.408C525.808 124.198 387.123 89.6876 387.123 16.1266C387.123 -57.4344 750.809 -117.067 1199.44 -117.067Z" fill="#0066C9"/>
<path d="M682.178 -111.692C1130.81 -111.692 1494.49 -52.0589 1494.49 21.5021C1494.49 59.3124 1464.02 145.629 1130.9 123.717C797.78 101.805 170.638 250.405 -12.147 47.5471C-194.932 -155.311 -130.136 95.0631 -130.136 21.5021C-130.136 -52.0589 233.549 -111.692 682.178 -111.692Z" fill="#0066C9"/>
</g>
</svg>
