<svg id="هين-01" xmlns="http://www.w3.org/2000/svg" width="44.637" height="53.953" viewBox="0 0 44.637 53.953">
  <g id="Group_174544" data-name="Group 174544" transform="translate(0)">
    <g id="Group_174539" data-name="Group 174539" transform="translate(0 36.687)">
      <path id="Path_63502" data-name="Path 63502" d="M9.947,410.13a2.248,2.248,0,0,0,1.022-1.142,5.871,5.871,0,0,0,.427-2.006c.056-.817.084-1.811.084-2.963v-3.084h4.774v2.628c.019.632.158,1.031.418,1.207a1.962,1.962,0,0,0,1.105.269h.873a1.263,1.263,0,0,1,.334.046c.1.028.149.121.149.279v2.721c0,.167-.158.251-.483.251h-.511a2.383,2.383,0,0,1-1.217-.279,2.245,2.245,0,0,1-.808-.808,11.718,11.718,0,0,1-.557,2.74,5.067,5.067,0,0,1-1.31,2.071,5.841,5.841,0,0,1-2.378,1.3,13.25,13.25,0,0,1-3.752.446,14.445,14.445,0,0,1-3.288-.325,6.936,6.936,0,0,1-2.248-.919A4.647,4.647,0,0,1,1.161,411.1a6.739,6.739,0,0,1-.771-1.95,13.865,13.865,0,0,1-.325-2.378C.019,405.932,0,405,0,404.028v-3.084H4.607v3.084c0,1.152.028,2.136.093,2.963A6.136,6.136,0,0,0,5.136,409a2.359,2.359,0,0,0,1.04,1.142,3.975,3.975,0,0,0,1.885.372A4.055,4.055,0,0,0,9.947,410.13ZM10.3,396.7v2.693H5.693V396.7Z" transform="translate(0 -396.542)" fill="#fff"/>
      <path id="Path_63503" data-name="Path 63503" d="M195.5,425.676v-2.721c0-.158.046-.242.149-.279a1.263,1.263,0,0,1,.334-.047h2.508a1.26,1.26,0,0,0,1.263-1.458V416.1h4.635v4.978a1.74,1.74,0,0,0,.325,1.207,1.162,1.162,0,0,0,.873.334h1.337a1.266,1.266,0,0,1,.334.046c.1.028.149.121.149.279v2.721c0,.167-.158.251-.483.251h-1.337a2.65,2.65,0,0,1-1.5-.418,3.259,3.259,0,0,1-1.049-1.18,3.608,3.608,0,0,1-.919.78,5.089,5.089,0,0,1-1.05.483,5.738,5.738,0,0,1-1.087.251,8.159,8.159,0,0,1-1.05.065h-2.954C195.658,425.926,195.5,425.843,195.5,425.676Zm5.991,2.443v2.694H198.1v-2.694Zm4.375,0v2.694h-3.39v-2.694Z" transform="translate(-177.342 -414.14)" fill="#fff"/>
      <path id="Path_63504" data-name="Path 63504" d="M313.3,406.535v-2.721c0-.158.046-.241.149-.279a1.263,1.263,0,0,1,.334-.046h1.43a3.474,3.474,0,0,1-.186-.771,6.908,6.908,0,0,1-.065-.957,6.306,6.306,0,0,1,.2-1.635,4.21,4.21,0,0,1,.641-1.384,3.313,3.313,0,0,1,1.133-.975,4.058,4.058,0,0,1,1.663-.446,5.6,5.6,0,0,1,2.155-1.727,7.7,7.7,0,0,1,5.359-.214,3.678,3.678,0,0,1,1.588,1.115,4.566,4.566,0,0,1,.864,1.811,10.261,10.261,0,0,1,.269,2.452V406.8H313.792C313.467,406.786,313.3,406.7,313.3,406.535Zm6.362-6.046a.666.666,0,0,0-.715-.52.65.65,0,0,0-.706.52,5.5,5.5,0,0,0-.13,1.282c0,.26.009.511.019.734a2.809,2.809,0,0,0,.1.613,1.024,1.024,0,0,0,.251.427.611.611,0,0,0,.446.158.653.653,0,0,0,.446-.158,1.164,1.164,0,0,0,.269-.427,2,2,0,0,0,.111-.613c.019-.232.019-.474.019-.734A4.086,4.086,0,0,0,319.662,400.489Zm2.164-2.043a3.372,3.372,0,0,1,.529.808,5.612,5.612,0,0,1,.334.873,5.7,5.7,0,0,1,.177.864c.028.288.046.539.046.771a6.105,6.105,0,0,1-.065.854,6.509,6.509,0,0,1-.186.873h1.662v-2.74a4.82,4.82,0,0,0-.334-2.015,1.12,1.12,0,0,0-1.068-.706A1.857,1.857,0,0,0,321.826,398.446Z" transform="translate(-284.201 -395)" fill="#fff"/>
    </g>
    <g id="Group_174543" data-name="Group 174543" transform="translate(10.29)">
      <g id="Group_174540" data-name="Group 174540" transform="translate(0 3.845)">
        <path id="Path_63505" data-name="Path 63505" d="M211.7,183.831a1.059,1.059,0,0,1-.446.892,1.856,1.856,0,0,1-1.049.362h-.074a2.964,2.964,0,0,1-1.245-.316,4.52,4.52,0,0,1-1.105-.678.991.991,0,0,1,.139-.613,6.379,6.379,0,0,1,.622-1.059c.641-.882,1.087-1.319,1.356-1.319.251.056.613.446,1.068,1.161A3.772,3.772,0,0,1,211.7,183.831Z" transform="translate(-198.76 -168.125)" fill="#fff"/>
        <path id="Path_63506" data-name="Path 63506" d="M266.364,200.748c0,.232-.13.344-.4.344a1.606,1.606,0,0,1-.279-.037c-1.644-.362-2.712-.6-3.186-.734a4.182,4.182,0,0,0,.594-2.127,7.041,7.041,0,0,0-.074-.994,8.264,8.264,0,0,1,3.186,2.991A1.276,1.276,0,0,1,266.364,200.748Z" transform="translate(-248.41 -182.73)" fill="#fff"/>
        <path id="Path_63507" data-name="Path 63507" d="M134.829,66.746l-2.192-21.984a3.739,3.739,0,0,0-3.724-3.362H116.727A3.746,3.746,0,0,0,113,44.762L111.47,60.124h3.251a13.181,13.181,0,0,0,4.142-.539,2.938,2.938,0,0,1-.622-1.616v-.121a7.3,7.3,0,0,1,.362-2.006,16.713,16.713,0,0,1,1.43-2.991,2.788,2.788,0,0,1-.4-1.375,2.488,2.488,0,0,1,.334-1.031,13,13,0,0,1,.854-1.375c.13-.2.269-.279.418-.241a10.388,10.388,0,0,1,1.337.975q.78.641,4.737,3.669a7.964,7.964,0,0,1,2.526,2.628,5.788,5.788,0,0,1,.539,2.35v.158a6.483,6.483,0,0,1-.492,2.526,4.524,4.524,0,0,1-1.282,1.793,1.391,1.391,0,0,1-.734.2,1.837,1.837,0,0,1-.557-.074q-.766-.125-4.56-1.2a24.326,24.326,0,0,1-5.331,1.31,18.009,18.009,0,0,1-1.876.13c-.158,0-.316.009-.474.009h-3.919l-.344,3.446a3.739,3.739,0,0,0,3.724,4.114h16.588A3.748,3.748,0,0,0,134.829,66.746Z" transform="translate(-110.791 -41.4)" fill="#fff"/>
        <path id="Path_63508" data-name="Path 63508" d="M211.7,183.831a1.059,1.059,0,0,1-.446.892,1.856,1.856,0,0,1-1.049.362h-.074a2.964,2.964,0,0,1-1.245-.316,4.52,4.52,0,0,1-1.105-.678.991.991,0,0,1,.139-.613,6.379,6.379,0,0,1,.622-1.059c.641-.882,1.087-1.319,1.356-1.319.251.056.613.446,1.068,1.161A3.772,3.772,0,0,1,211.7,183.831Z" transform="translate(-198.76 -168.125)" fill="#fff"/>
        <path id="Path_63509" data-name="Path 63509" d="M266.364,200.748c0,.232-.13.344-.4.344a1.606,1.606,0,0,1-.279-.037c-1.644-.362-2.712-.6-3.186-.734a4.182,4.182,0,0,0,.594-2.127,7.041,7.041,0,0,0-.074-.994,8.264,8.264,0,0,1,3.186,2.991A1.276,1.276,0,0,1,266.364,200.748Z" transform="translate(-248.41 -182.73)" fill="#fff"/>
        <path id="Path_63510" data-name="Path 63510" d="M134.829,66.746l-2.192-21.984a3.739,3.739,0,0,0-3.724-3.362H116.727A3.746,3.746,0,0,0,113,44.762L111.47,60.124h3.251a13.181,13.181,0,0,0,4.142-.539,2.938,2.938,0,0,1-.622-1.616v-.121a7.3,7.3,0,0,1,.362-2.006,16.713,16.713,0,0,1,1.43-2.991,2.788,2.788,0,0,1-.4-1.375,2.488,2.488,0,0,1,.334-1.031,13,13,0,0,1,.854-1.375c.13-.2.269-.279.418-.241a10.388,10.388,0,0,1,1.337.975q.78.641,4.737,3.669a7.964,7.964,0,0,1,2.526,2.628,5.788,5.788,0,0,1,.539,2.35v.158a6.483,6.483,0,0,1-.492,2.526,4.524,4.524,0,0,1-1.282,1.793,1.391,1.391,0,0,1-.734.2,1.837,1.837,0,0,1-.557-.074q-.766-.125-4.56-1.2a24.326,24.326,0,0,1-5.331,1.31,18.009,18.009,0,0,1-1.876.13c-.158,0-.316.009-.474.009h-3.919l-.344,3.446a3.739,3.739,0,0,0,3.724,4.114h16.588A3.748,3.748,0,0,0,134.829,66.746Z" transform="translate(-110.791 -41.4)" fill="#fff"/>
      </g>
      <path id="Path_63511" data-name="Path 63511" d="M193.644,5.907h0c0-.121-.009-.232-.019-.344a6.6,6.6,0,0,0-.269-1.43c-.037-.121-.074-.232-.121-.353a5.083,5.083,0,0,0-9.826,0c-.037.111-.074.223-.121.353A6.737,6.737,0,0,0,183,5.9v.409h.836V5.926c.009-.186.019-.381.046-.567a5.5,5.5,0,0,1,.26-1.124c.037-.111.084-.232.121-.334a4.249,4.249,0,0,1,8.117,0,2.8,2.8,0,0,1,.121.334,5.9,5.9,0,0,1,.307,1.7v.381h.836V5.907Z" transform="translate(-176.293 0)"/>
      <g id="Group_174541" data-name="Group 174541" transform="translate(6.149 5.888)">
        <circle id="Ellipse_7791" data-name="Ellipse 7791" cx="0.966" cy="0.966" r="0.966"/>
        <circle id="Ellipse_7792" data-name="Ellipse 7792" cx="0.464" cy="0.464" r="0.464" transform="translate(0.502 0.502)" fill="#fff"/>
      </g>
      <g id="Group_174542" data-name="Group 174542" transform="translate(15.985 5.888)">
        <circle id="Ellipse_7793" data-name="Ellipse 7793" cx="0.966" cy="0.966" r="0.966"/>
        <circle id="Ellipse_7794" data-name="Ellipse 7794" cx="0.464" cy="0.464" r="0.464" transform="translate(0.502 0.502)" fill="#fff"/>
      </g>
    </g>
  </g>
</svg>
