<?xml version="1.0" encoding="utf-8"?>
<!-- Generator: Adobe Illustrator 27.8.1, SVG Export Plug-In . SVG Version: 6.00 Build 0)  -->
<svg version="1.1" id="Layer_1" xmlns="http://www.w3.org/2000/svg" xmlns:xlink="http://www.w3.org/1999/xlink" x="0px" y="0px"
	 viewBox="0 0 641.6 128.3" style="enable-background:new 0 0 641.6 128.3;" xml:space="preserve">
<style type="text/css">
	.st0{fill:#FFFFFF;}
</style>
<g>
	<path class="st0" d="M622.1,100.1c11.9-10.5,19.5-25.8,19.5-42.9c0-31.5-25.6-57.1-57.2-57.1h-46.1v20.1h14V14h32.2
		c23.8,0,43.2,19.4,43.2,43.2c0,13.2-6,25.1-15.4,33c-1.6,1.4-3.3,2.6-5,3.7l-4.5-4.5l-4.1-4.1l-0.4-0.4c1.9-0.9,3.7-2.1,5.4-3.4
		c7.2-5.7,11.8-14.4,11.8-24.3c0-17-13.8-30.8-30.8-30.8h-32.2h-13.9l0,0v0h0V88v26.3h46.1c4.5,0,8.9-0.5,13.2-1.5l-12.4-12.4
		c-0.2,0-0.5,0-0.7,0h-32.2V88V60l0,0V40.3h0h32.1c9.3,0,16.9,7.6,16.9,16.9c0,6-3.1,11.3-7.9,14.3c-2.2,1.4-4.7,2.3-7.5,2.5
		c-0.5,0-1,0.1-1.5,0.1h-16.9l14,14l6,6l5.4,5.4l0.2,0.2l11.1,11.1l17.5,17.5h19.8l-24.4-24.4C618.9,102.7,620.5,101.4,622.1,100.1z
		"/>
	<g>
		<path class="st0" d="M7.7,39c0.2,0.2,0.5,0.4,0.8,0.5c0.3,0.1,0.6,0.2,0.9,0.2c0.3,0,0.7-0.1,1-0.2c0.3-0.1,0.6-0.3,0.8-0.5
			c0.2-0.2,0.4-0.5,0.5-0.8c0.1-0.3,0.2-0.6,0.2-1s-0.1-0.7-0.2-1c-0.1-0.3-0.3-0.6-0.5-0.8c-0.2-0.2-0.5-0.4-0.8-0.5
			c-0.3-0.1-0.6-0.2-1-0.2c-0.3,0-0.6,0.1-0.9,0.2c-0.3,0.1-0.6,0.3-0.8,0.5c-0.2,0.2-0.4,0.5-0.5,0.8S7,36.9,7,37.3s0.1,0.7,0.2,1
			C7.3,38.5,7.5,38.8,7.7,39z"/>
		<path class="st0" d="M14.4,39c0.2,0.2,0.5,0.4,0.8,0.5c0.3,0.1,0.6,0.2,0.9,0.2c0.3,0,0.7-0.1,1-0.2c0.3-0.1,0.6-0.3,0.8-0.5
			c0.2-0.2,0.4-0.5,0.5-0.8c0.1-0.3,0.2-0.6,0.2-1s-0.1-0.7-0.2-1c-0.1-0.3-0.3-0.6-0.5-0.8c-0.2-0.2-0.5-0.4-0.8-0.5
			c-0.3-0.1-0.6-0.2-1-0.2c-0.3,0-0.6,0.1-0.9,0.2s-0.6,0.3-0.8,0.5c-0.2,0.2-0.4,0.5-0.5,0.8s-0.2,0.6-0.2,1s0.1,0.7,0.2,1
			C14,38.5,14.1,38.8,14.4,39z"/>
		<path class="st0" d="M5.1,58.6h18.1c1.6,0,2.9-0.4,3.8-1.3c0.9-0.9,1.3-2.4,1.3-4.4l0-14.2c0-0.1,0-0.2-0.1-0.3
			c-0.1-0.1-0.2-0.1-0.3-0.1h-3.4c-0.1,0-0.2,0-0.3,0.1c-0.1,0.1-0.1,0.2-0.1,0.3v15.7H4.2v-3.6c0-0.1,0-0.2-0.1-0.3
			c-0.1-0.1-0.2-0.1-0.3-0.1H0.4c-0.1,0-0.2,0-0.3,0.1C0,50.7,0,50.8,0,50.9v2c0,2,0.4,3.5,1.3,4.4C2.2,58.2,3.5,58.6,5.1,58.6z"/>
		<path class="st0" d="M56.2,57.3c0.9-0.9,1.3-2.4,1.3-4.4V44c0-2-0.4-3.5-1.3-4.4c-0.9-0.9-2.1-1.3-3.8-1.3h-6.1
			c-1.6,0-2.9,0.4-3.8,1.3c-0.9,0.9-1.3,2.4-1.3,4.4v10.4h-2.4h-0.2h-2.4V30.6c0-0.1,0-0.2-0.1-0.3c-0.1-0.1-0.2-0.1-0.3-0.1h-3.4
			c-0.3,0-0.4,0.1-0.4,0.4v22.3c0,2,0.4,3.5,1.3,4.4c0.9,0.9,2.1,1.3,3.8,1.3h1.5h0.2h13.7C54,58.6,55.3,58.2,56.2,57.3z M45.4,42.5
			h7.9v12h-7.9V42.5z"/>
		<path class="st0" d="M142.9,30.6c0-0.3-0.1-0.4-0.4-0.4h-3.4c-0.1,0-0.2,0-0.3,0.1c-0.1,0.1-0.1,0.2-0.1,0.3v23.8h-2.4H136h-2.5
			V44c0-2-0.4-3.5-1.3-4.4c-0.9-0.9-2.1-1.3-3.8-1.3h-6.1c-1.6,0-2.9,0.4-3.8,1.3c-0.9,0.9-1.3,2.4-1.3,4.4v10.4h-2.5h-0.1h-7l3.2-8
			c0.3-0.8,0.6-1.6,0.9-2.4c0.3-0.8,0.4-1.6,0.4-2.4c0-0.7-0.1-1.3-0.4-1.7c-0.3-0.4-0.7-0.8-1.2-1c-0.5-0.2-1.1-0.4-1.7-0.5
			c-0.6-0.1-1.3-0.1-2-0.1h-9.4c-0.6,0-1.2,0-1.7,0.1c-0.6,0.1-1.1,0.2-1.6,0.4c-0.5,0.2-0.9,0.4-1.2,0.8c-0.3,0.3-0.6,0.8-0.6,1.3
			v-0.1c0,0.1,0,0.3,0,0.4c0,0.2,0,0.3,0,0.4c0,0.5,0.1,1.2,0.3,1.9c0.2,0.7,0.5,1.6,0.9,2.6c0.4,1,0.9,2.2,1.5,3.6s1.2,3,2,4.8
			h-7.2h-0.1h-2.5V30.6c0-0.1,0-0.2-0.1-0.3c-0.1-0.1-0.2-0.1-0.3-0.1h-3.4c-0.3,0-0.4,0.1-0.4,0.4v23.8h-2.3h-0.3h-2.5V44
			c0-2-0.4-3.5-1.3-4.4c-0.9-0.9-2.1-1.3-3.8-1.3h-6.1c-1.7,0-2.9,0.4-3.8,1.3c-0.9,0.9-1.3,2.4-1.3,4.4v8.9c0,2,0.4,3.5,1.3,4.4
			c0.9,0.9,2.1,1.3,3.8,1.3h7.5c-0.3,1.7-0.7,3.1-1.3,4.2c-0.6,1.1-1.3,1.9-2,2.4c-0.8,0.6-1.6,0.9-2.5,1.1
			c-0.9,0.2-1.8,0.3-2.7,0.3c-0.5,0-1,0-1.6,0c-0.5,0-1,0-1.4,0c-0.1,0-0.2,0-0.3,0.1C62.1,66.8,62,66.9,62,67v3.4
			c0,0.1,0.1,0.2,0.2,0.3c0.1,0.1,0.2,0.1,0.4,0.2l2.5,0.1c1.7,0,3.4-0.3,4.8-0.8c1.5-0.5,2.8-1.3,3.8-2.3c1.1-1,2-2.3,2.7-3.8
			c0.7-1.5,1.2-3.3,1.4-5.3h2.4h0.3h9h0.1h25h0.1H136h0.2h1.5c1.6,0,2.9-0.4,3.8-1.3c0.9-0.9,1.3-2.4,1.3-4.4V30.6z M73.5,54.4h-7.9
			v-12h7.9V54.4z M96.3,42.5h12.2l-6.4,13.6L96.3,42.5z M129.4,54.4h-7.9v-12h7.9V54.4z"/>
		<path class="st0" d="M148.2,58.8h3.4c0.1,0,0.2,0,0.3-0.1c0.1-0.1,0.1-0.2,0.1-0.3V30.6c0-0.1,0-0.2-0.1-0.3
			c-0.1-0.1-0.2-0.1-0.3-0.1h-3.4c-0.3,0-0.4,0.1-0.4,0.4v27.8c0,0.1,0,0.2,0.1,0.3C148,58.8,148.1,58.8,148.2,58.8z"/>
		<path class="st0" d="M171.6,31.8c0.2,0.2,0.5,0.4,0.8,0.5c0.3,0.1,0.6,0.2,0.9,0.2c0.3,0,0.7-0.1,1-0.2c0.3-0.1,0.6-0.3,0.8-0.5
			c0.2-0.2,0.4-0.5,0.5-0.8c0.1-0.3,0.2-0.6,0.2-1s-0.1-0.7-0.2-0.9c-0.1-0.3-0.3-0.6-0.5-0.8c-0.2-0.2-0.5-0.4-0.8-0.5
			c-0.3-0.1-0.6-0.2-1-0.2c-0.3,0-0.6,0.1-0.9,0.2c-0.3,0.1-0.6,0.3-0.8,0.5c-0.2,0.2-0.4,0.5-0.5,0.8s-0.2,0.6-0.2,0.9
			s0.1,0.7,0.2,1C171.2,31.3,171.4,31.6,171.6,31.8z"/>
		<path class="st0" d="M178.2,31.8c0.2,0.2,0.5,0.4,0.8,0.5c0.3,0.1,0.6,0.2,0.9,0.2c0.3,0,0.7-0.1,1-0.2c0.3-0.1,0.6-0.3,0.8-0.5
			c0.2-0.2,0.4-0.5,0.5-0.8c0.1-0.3,0.2-0.6,0.2-1s-0.1-0.7-0.2-0.9c-0.1-0.3-0.3-0.6-0.5-0.8c-0.2-0.2-0.5-0.4-0.8-0.5
			c-0.3-0.1-0.6-0.2-1-0.2c-0.3,0-0.6,0.1-0.9,0.2s-0.6,0.3-0.8,0.5c-0.2,0.2-0.4,0.5-0.5,0.8s-0.2,0.6-0.2,0.9s0.1,0.7,0.2,1
			C177.8,31.3,178,31.6,178.2,31.8z"/>
		<path class="st0" d="M190.8,68.7c0.3,0.1,0.6,0.2,0.9,0.2c0.3,0,0.7-0.1,1-0.2s0.6-0.3,0.8-0.5c0.2-0.2,0.4-0.5,0.5-0.8
			c0.1-0.3,0.2-0.6,0.2-1s-0.1-0.7-0.2-1c-0.1-0.3-0.3-0.6-0.5-0.8c-0.2-0.2-0.5-0.4-0.8-0.5c-0.3-0.1-0.6-0.2-1-0.2
			c-0.3,0-0.6,0.1-0.9,0.2c-0.3,0.1-0.6,0.3-0.8,0.5c-0.2,0.2-0.4,0.5-0.5,0.8c-0.1,0.3-0.2,0.6-0.2,1s0.1,0.7,0.2,1
			c0.1,0.3,0.3,0.6,0.5,0.8C190.3,68.4,190.5,68.5,190.8,68.7z"/>
		<path class="st0" d="M200.1,68.1c0.2-0.2,0.4-0.5,0.5-0.8c0.1-0.3,0.2-0.6,0.2-1s-0.1-0.7-0.2-1c-0.1-0.3-0.3-0.6-0.5-0.8
			c-0.2-0.2-0.5-0.4-0.8-0.5c-0.3-0.1-0.6-0.2-1-0.2c-0.3,0-0.6,0.1-0.9,0.2c-0.3,0.1-0.6,0.3-0.8,0.5c-0.2,0.2-0.4,0.5-0.5,0.8
			c-0.1,0.3-0.2,0.6-0.2,1s0.1,0.7,0.2,1c0.1,0.3,0.3,0.6,0.5,0.8c0.2,0.2,0.5,0.4,0.8,0.5c0.3,0.1,0.6,0.2,0.9,0.2
			c0.3,0,0.7-0.1,1-0.2C199.7,68.5,199.9,68.4,200.1,68.1z"/>
		<path class="st0" d="M206.2,32.3c0.2,0.2,0.5,0.4,0.8,0.5c0.3,0.1,0.6,0.2,0.9,0.2c0.3,0,0.7-0.1,1-0.2c0.3-0.1,0.6-0.3,0.8-0.5
			c0.2-0.2,0.4-0.5,0.5-0.8c0.1-0.3,0.2-0.6,0.2-1s-0.1-0.7-0.2-0.9c-0.1-0.3-0.3-0.6-0.5-0.8c-0.2-0.2-0.5-0.4-0.8-0.5
			c-0.3-0.1-0.6-0.2-1-0.2c-0.3,0-0.6,0.1-0.9,0.2c-0.3,0.1-0.6,0.3-0.8,0.5c-0.2,0.2-0.4,0.5-0.5,0.8c-0.1,0.3-0.2,0.6-0.2,0.9
			s0.1,0.7,0.2,1C205.8,31.8,206,32.1,206.2,32.3z"/>
		<path class="st0" d="M225.1,32c0.2,0.2,0.5,0.4,0.8,0.5c0.3,0.1,0.6,0.2,0.9,0.2c0.3,0,0.7-0.1,1-0.2c0.3-0.1,0.6-0.3,0.8-0.5
			c0.2-0.2,0.4-0.5,0.5-0.8c0.1-0.3,0.2-0.6,0.2-1s-0.1-0.7-0.2-1c-0.1-0.3-0.3-0.6-0.5-0.8c-0.2-0.2-0.5-0.4-0.8-0.5
			c-0.3-0.1-0.6-0.2-1-0.2c-0.3,0-0.6,0.1-0.9,0.2c-0.3,0.1-0.6,0.3-0.8,0.5c-0.2,0.2-0.4,0.5-0.5,0.8c-0.1,0.3-0.2,0.6-0.2,1
			s0.1,0.7,0.2,1C224.7,31.5,224.9,31.8,225.1,32z"/>
		<path class="st0" d="M218.5,32c0.2,0.2,0.5,0.4,0.8,0.5c0.3,0.1,0.6,0.2,0.9,0.2c0.3,0,0.7-0.1,1-0.2s0.6-0.3,0.8-0.5
			c0.2-0.2,0.4-0.5,0.5-0.8s0.2-0.6,0.2-1s-0.1-0.7-0.2-1c-0.1-0.3-0.3-0.6-0.5-0.8c-0.2-0.2-0.5-0.4-0.8-0.5s-0.6-0.2-1-0.2
			c-0.3,0-0.6,0.1-0.9,0.2c-0.3,0.1-0.6,0.3-0.8,0.5c-0.2,0.2-0.4,0.5-0.5,0.8c-0.1,0.3-0.2,0.6-0.2,1s0.1,0.7,0.2,1
			C218.1,31.5,218.2,31.8,218.5,32z"/>
		<path class="st0" d="M242.7,32c0.2,0.2,0.5,0.4,0.8,0.5s0.6,0.2,0.9,0.2c0.3,0,0.7-0.1,1-0.2c0.3-0.1,0.6-0.3,0.8-0.5
			c0.2-0.2,0.4-0.5,0.5-0.8s0.2-0.6,0.2-1s-0.1-0.7-0.2-1c-0.1-0.3-0.3-0.6-0.5-0.8c-0.2-0.2-0.5-0.4-0.8-0.5
			c-0.3-0.1-0.6-0.2-1-0.2c-0.3,0-0.6,0.1-0.9,0.2s-0.6,0.3-0.8,0.5c-0.2,0.2-0.4,0.5-0.5,0.8c-0.1,0.3-0.2,0.6-0.2,1s0.1,0.7,0.2,1
			S242.5,31.8,242.7,32z"/>
		<path class="st0" d="M236.1,32c0.2,0.2,0.5,0.4,0.8,0.5c0.3,0.1,0.6,0.2,0.9,0.2c0.3,0,0.7-0.1,1-0.2c0.3-0.1,0.6-0.3,0.8-0.5
			c0.2-0.2,0.4-0.5,0.5-0.8s0.2-0.6,0.2-1s-0.1-0.7-0.2-1c-0.1-0.3-0.3-0.6-0.5-0.8c-0.2-0.2-0.5-0.4-0.8-0.5
			c-0.3-0.1-0.6-0.2-1-0.2c-0.3,0-0.6,0.1-0.9,0.2c-0.3,0.1-0.6,0.3-0.8,0.5c-0.2,0.2-0.4,0.5-0.5,0.8c-0.1,0.3-0.2,0.6-0.2,1
			s0.1,0.7,0.2,1S235.9,31.8,236.1,32z"/>
		<path class="st0" d="M234.3,58.6h13.3h0.2h1.5c1.6,0,2.9-0.4,3.8-1.3c0.9-0.9,1.3-2.4,1.3-4.4V30.6c0-0.3-0.1-0.4-0.4-0.4h-3.4
			c-0.1,0-0.2,0-0.3,0.1c-0.1,0.1-0.1,0.2-0.1,0.3v23.8h-2.4h-0.2h-4.6V38.7c0-0.1,0-0.2-0.1-0.3c-0.1-0.1-0.2-0.1-0.3-0.1h-3.4
			c-0.1,0-0.2,0-0.3,0.1c-0.1,0.1-0.1,0.2-0.1,0.3v15.7h-4.4h-0.2h-2.5V44c0-2-0.4-3.5-1.3-4.4c-0.9-0.9-2.2-1.3-3.8-1.3h-6.1
			c-1.6,0-2.9,0.4-3.8,1.3c-0.9,0.9-1.3,2.4-1.3,4.4v10.4h-2.4h-0.2H210V38.7c0-0.1,0-0.2-0.1-0.3c-0.1-0.1-0.2-0.1-0.3-0.1h-3.4
			c-0.1,0-0.2,0-0.3,0.1c-0.1,0.1-0.1,0.2-0.1,0.3v15.7H203h-0.3h-5.5V38.7c0-0.1,0-0.2-0.1-0.3c-0.1-0.1-0.2-0.1-0.3-0.1h-3.4
			c-0.1,0-0.2,0-0.3,0.1c-0.1,0.1-0.1,0.2-0.1,0.3v15.7h-5.3h-0.2h-2.6V44c0-2-0.5-3.5-1.3-4.4c-0.9-0.9-2.1-1.3-3.8-1.3h-6.1
			c-1.7,0-2.9,0.4-3.8,1.3c-0.9,0.9-1.3,2.4-1.3,4.4v8.9c0,2,0.4,3.5,1.3,4.4c0.9,0.9,2.1,1.3,3.8,1.3h13.8h0.2h15.1h0.3h9.5h0.2
			h21.3H234.3z M180.7,54.4h-7.9v-12h7.9V54.4z M227.3,54.4h-7.9v-12h7.9V54.4z"/>
		<path class="st0" d="M273.8,31.8c0.2,0.2,0.5,0.4,0.8,0.5c0.3,0.1,0.6,0.2,0.9,0.2c0.3,0,0.7-0.1,1-0.2c0.3-0.1,0.6-0.3,0.8-0.5
			c0.2-0.2,0.4-0.5,0.5-0.8c0.1-0.3,0.2-0.6,0.2-1s-0.1-0.7-0.2-0.9s-0.3-0.6-0.5-0.8c-0.2-0.2-0.5-0.4-0.8-0.5
			c-0.3-0.1-0.6-0.2-1-0.2c-0.3,0-0.6,0.1-0.9,0.2s-0.6,0.3-0.8,0.5c-0.2,0.2-0.4,0.5-0.5,0.8s-0.2,0.6-0.2,0.9s0.1,0.7,0.2,1
			C273.4,31.3,273.6,31.6,273.8,31.8z"/>
		<path class="st0" d="M280.4,31.8c0.2,0.2,0.5,0.4,0.8,0.5c0.3,0.1,0.6,0.2,0.9,0.2c0.3,0,0.7-0.1,1-0.2c0.3-0.1,0.6-0.3,0.8-0.5
			c0.2-0.2,0.4-0.5,0.5-0.8c0.1-0.3,0.2-0.6,0.2-1s-0.1-0.7-0.2-0.9c-0.1-0.3-0.3-0.6-0.5-0.8c-0.2-0.2-0.5-0.4-0.8-0.5
			s-0.6-0.2-1-0.2c-0.3,0-0.6,0.1-0.9,0.2c-0.3,0.1-0.6,0.3-0.8,0.5c-0.2,0.2-0.4,0.5-0.5,0.8s-0.2,0.6-0.2,0.9s0.1,0.7,0.2,1
			C280.1,31.3,280.2,31.6,280.4,31.8z"/>
		<path class="st0" d="M299.7,68.7c0.3,0.1,0.6,0.2,0.9,0.2c0.3,0,0.7-0.1,1-0.2c0.3-0.1,0.6-0.3,0.8-0.5c0.2-0.2,0.4-0.5,0.5-0.8
			c0.1-0.3,0.2-0.6,0.2-1s-0.1-0.7-0.2-1c-0.1-0.3-0.3-0.6-0.5-0.8c-0.2-0.2-0.5-0.4-0.8-0.5c-0.3-0.1-0.6-0.2-1-0.2
			c-0.3,0-0.6,0.1-0.9,0.2c-0.3,0.1-0.6,0.3-0.8,0.5c-0.2,0.2-0.4,0.5-0.5,0.8c-0.1,0.3-0.2,0.6-0.2,1s0.1,0.7,0.2,1
			c0.1,0.3,0.3,0.6,0.5,0.8C299.1,68.4,299.4,68.5,299.7,68.7z"/>
		<path class="st0" d="M293.1,68.7c0.3,0.1,0.6,0.2,0.9,0.2c0.3,0,0.7-0.1,1-0.2s0.6-0.3,0.8-0.5c0.2-0.2,0.4-0.5,0.5-0.8
			c0.1-0.3,0.2-0.6,0.2-1s-0.1-0.7-0.2-1c-0.1-0.3-0.3-0.6-0.5-0.8c-0.2-0.2-0.5-0.4-0.8-0.5c-0.3-0.1-0.6-0.2-1-0.2
			c-0.3,0-0.6,0.1-0.9,0.2c-0.3,0.1-0.6,0.3-0.8,0.5c-0.2,0.2-0.4,0.5-0.5,0.8c-0.1,0.3-0.2,0.6-0.2,1s0.1,0.7,0.2,1
			c0.1,0.3,0.3,0.6,0.5,0.8C292.5,68.4,292.8,68.5,293.1,68.7z"/>
		<path class="st0" d="M332.2,32c0.2,0.2,0.5,0.4,0.8,0.5c0.3,0.1,0.6,0.2,0.9,0.2c0.3,0,0.7-0.1,1-0.2s0.6-0.3,0.8-0.5
			c0.2-0.2,0.4-0.5,0.5-0.8s0.2-0.6,0.2-1s-0.1-0.7-0.2-1c-0.1-0.3-0.3-0.6-0.5-0.8c-0.2-0.2-0.5-0.4-0.8-0.5s-0.6-0.2-1-0.2
			c-0.3,0-0.6,0.1-0.9,0.2c-0.3,0.1-0.6,0.3-0.8,0.5c-0.2,0.2-0.4,0.5-0.5,0.8c-0.1,0.3-0.2,0.6-0.2,1s0.1,0.7,0.2,1
			C331.8,31.5,332,31.8,332.2,32z"/>
		<path class="st0" d="M338.8,32c0.2,0.2,0.5,0.4,0.8,0.5s0.6,0.2,0.9,0.2c0.3,0,0.7-0.1,1-0.2c0.3-0.1,0.6-0.3,0.8-0.5
			c0.2-0.2,0.4-0.5,0.5-0.8s0.2-0.6,0.2-1s-0.1-0.7-0.2-1c-0.1-0.3-0.3-0.6-0.5-0.8c-0.2-0.2-0.5-0.4-0.8-0.5
			c-0.3-0.1-0.6-0.2-1-0.2c-0.3,0-0.6,0.1-0.9,0.2s-0.6,0.3-0.8,0.5c-0.2,0.2-0.4,0.5-0.5,0.8c-0.1,0.3-0.2,0.6-0.2,1s0.1,0.7,0.2,1
			S338.6,31.8,338.8,32z"/>
		<path class="st0" d="M340.3,38.3h-6.1c-1.6,0-2.9,0.4-3.8,1.3c-0.9,0.9-1.3,2.4-1.3,4.4v10.4h-2.5h-0.2H324V44
			c0-2-0.4-3.5-1.3-4.4c-0.9-0.9-2.1-1.3-3.8-1.3h-6.1c-1.6,0-2.9,0.4-3.8,1.3c-0.9,0.9-1.3,2.4-1.3,4.4v10.4h-2.4H305h-5.5V38.7
			c0-0.1,0-0.2-0.1-0.3c-0.1-0.1-0.2-0.1-0.3-0.1h-3.4c-0.1,0-0.2,0-0.3,0.1c-0.1,0.1-0.1,0.2-0.1,0.3v15.7h-5.3h-0.2h-2.6V44
			c0-2-0.5-3.5-1.3-4.4c-0.9-0.9-2.1-1.3-3.8-1.3h-6.1c-1.7,0-2.9,0.4-3.8,1.3c-0.9,0.9-1.3,2.4-1.3,4.4v8.9c0,2,0.4,3.5,1.3,4.4
			c0.9,0.9,2.1,1.3,3.8,1.3h13.8h0.2H305h0.3h21.2h0.2h13.7c1.6,0,2.9-0.4,3.8-1.3c0.9-0.9,1.3-2.4,1.3-4.4V44c0-2-0.4-3.5-1.3-4.4
			C343.2,38.7,342,38.3,340.3,38.3z M282.9,54.4H275v-12h7.9V54.4z M319.7,54.4h-7.9v-12h7.9V54.4z M341.2,54.4h-7.9v-12h7.9V54.4z"
			/>
		<path class="st0" d="M369.3,52.9V30.6c0-0.3-0.1-0.4-0.4-0.4h-3.4c-0.1,0-0.2,0-0.3,0.1c-0.1,0.1-0.1,0.2-0.1,0.3v23.8h-2.2h-0.4
			h-2l0.1-15.8c0-0.3-0.1-0.4-0.4-0.4h-3.5c-0.2,0-0.4,0.1-0.4,0.4v22.2c-0.2,1.1-0.5,1.9-0.9,2.6c-0.4,0.7-0.9,1.3-1.5,1.7
			c-0.6,0.4-1.3,0.7-2,0.9c-0.7,0.2-1.5,0.3-2.3,0.4h-1c-0.1,0-0.2,0-0.3,0.1c-0.1,0.1-0.1,0.2-0.1,0.3v3.4c0,0.1,0.1,0.2,0.2,0.3
			c0.1,0.1,0.2,0.1,0.3,0.1c0.1,0,0.3,0,0.4,0h0.3c0.2,0,0.4,0,0.7,0c0.2,0,0.5-0.1,0.7-0.1c1.3-0.2,2.6-0.7,3.7-1.3
			c1.1-0.6,2.1-1.4,2.9-2.5c0.8-1,1.5-2.2,2.1-3.6c0.5-1.4,0.9-3,1.1-4.7h2h0.4h1.3c1.6,0,2.9-0.4,3.8-1.3
			C368.9,56.4,369.3,54.9,369.3,52.9z"/>
		<path class="st0" d="M378.2,30.2h-3.4c-0.3,0-0.4,0.1-0.4,0.4v27.8c0,0.1,0,0.2,0.1,0.3c0.1,0.1,0.2,0.1,0.3,0.1h3.4
			c0.1,0,0.2,0,0.3-0.1c0.1-0.1,0.1-0.2,0.1-0.3V30.6c0-0.1,0-0.2-0.1-0.3C378.4,30.2,378.3,30.2,378.2,30.2z"/>
		<path class="st0" d="M402.5,38.3c-0.2,0-0.3,0.1-0.3,0.2v22.4c-0.2,1.1-0.5,1.9-0.9,2.6c-0.4,0.7-0.9,1.3-1.5,1.7
			c-0.6,0.4-1.3,0.7-2,0.9c-0.7,0.2-1.5,0.3-2.3,0.4h-1c-0.1,0-0.2,0-0.3,0.1c-0.1,0.1-0.1,0.2-0.1,0.3v3.4c0,0.1,0,0.2,0.1,0.3
			c0.1,0.1,0.2,0.1,0.3,0.1s0.3,0,0.4,0c0.1,0,0.2,0,0.3,0c0.2,0,0.4,0,0.6,0c0.2,0,0.5-0.1,0.7-0.1h0c1.5-0.3,2.8-0.7,4-1.4
			c1.2-0.6,2.2-1.5,3-2.5c0.8-1,1.5-2.2,1.9-3.6c0.5-1.4,0.7-2.9,0.7-4.6l0.1-20.1c0-0.2,0-0.2-0.1-0.2H402.5z"/>
		<path class="st0" d="M426.5,52.9V44c0-2-0.4-3.5-1.3-4.4c-0.9-0.9-2.1-1.3-3.8-1.3h-9c-0.1,0-0.2,0-0.3,0.1
			c-0.1,0.1-0.1,0.2-0.1,0.3v3.4c0,0.1,0,0.2,0.1,0.3c0.1,0.1,0.2,0.1,0.3,0.1h9.9v12h-12c-0.1,0-0.2,0-0.3,0.1
			c-0.1,0.1-0.1,0.2-0.1,0.3v3.4c0,0.1,0,0.2,0.1,0.3c0.1,0.1,0.2,0.1,0.3,0.1h11.1c1.7,0,2.9-0.4,3.8-1.3
			C426.1,56.4,426.5,54.9,426.5,52.9z"/>
		<path class="st0" d="M498.6,52.9V30.6c0-0.3-0.1-0.4-0.4-0.4h-3.4c-0.1,0-0.2,0-0.3,0.1c-0.1,0.1-0.1,0.2-0.1,0.3v23.8H492h-0.2
			h-2.5V44c0-2-0.4-3.5-1.3-4.4c-0.9-0.9-2.1-1.3-3.8-1.3h-6.1c-1.6,0-2.9,0.4-3.8,1.3c-0.9,0.9-1.3,2.4-1.3,4.4v10.4h-2.4h-0.3
			h-2.4v-6.4c0-2-0.4-3.5-1.3-4.4c-0.9-0.9-2.1-1.3-3.8-1.3h-19.1v-3.6c0-0.1,0-0.2-0.1-0.3c-0.1-0.1-0.2-0.1-0.3-0.1h-3.4
			c-0.1,0-0.2,0-0.3,0.1c-0.1,0.1-0.1,0.2-0.1,0.3v15.8h-2.3h-0.3h-2.3V30.6c0-0.1,0-0.2-0.1-0.3c-0.1-0.1-0.2-0.1-0.3-0.1h-3.4
			c-0.3,0-0.4,0.1-0.4,0.4v22.3c0,2,0.4,3.5,1.3,4.4c0.9,0.9,2.1,1.3,3.8,1.3h1.5h0.3h33.2h0.3h21.2h0.2h1.5c1.6,0,2.9-0.4,3.8-1.3
			C498.2,56.4,498.6,54.9,498.6,52.9z M463.7,54.4h-19.9v-7.9h19.9V54.4z M485.1,54.4h-7.9v-12h7.9V54.4z"/>
		<path class="st0" d="M507.7,30.3c-0.1-0.1-0.2-0.1-0.3-0.1H504c-0.3,0-0.4,0.1-0.4,0.4v27.8c0,0.1,0,0.2,0.1,0.3
			c0.1,0.1,0.2,0.1,0.3,0.1h3.4c0.1,0,0.2,0,0.3-0.1c0.1-0.1,0.1-0.2,0.1-0.3V30.6C507.8,30.5,507.8,30.4,507.7,30.3z"/>
		<path class="st0" d="M10.3,86.7c-0.6-0.4-1.1-0.7-1.8-0.8c-0.6-0.1-1.6-0.2-2.8-0.2h-5v14.7h5.2c0.4,0,0.8,0,1.1,0
			c0.3,0,0.6,0,0.9-0.1c0.3,0,0.5-0.1,0.8-0.2c0.2-0.1,0.4-0.1,0.6-0.2c1.1-0.5,2-1.4,2.6-2.6c0.6-1.3,1-2.7,1-4.4
			C12.9,90,12,87.9,10.3,86.7z M8.8,97.8c-0.6,0.4-1.6,0.7-3,0.7h-3v-11h2.9c1.2,0,2.1,0.1,2.6,0.4c0.8,0.4,1.4,1,1.8,1.8
			c0.4,0.8,0.6,1.9,0.6,3.1C10.8,95.3,10.1,96.9,8.8,97.8z"/>
		<rect x="15.4" y="85.6" class="st0" width="2" height="14.7"/>
		<path class="st0" d="M26.6,94.1h4.6c0,0.7-0.1,1.3-0.2,1.7c-0.2,0.5-0.4,0.9-0.6,1.2s-0.6,0.7-1,0.9c-0.4,0.3-0.8,0.4-1.2,0.6
			c-0.5,0.1-0.9,0.2-1.4,0.2c-0.8,0-1.4-0.1-2-0.4c-0.6-0.3-1.1-0.6-1.5-1.1c-0.4-0.5-0.7-1.1-0.9-1.8c-0.2-0.7-0.3-1.5-0.3-2.4
			c0-0.9,0.1-1.7,0.3-2.5c0.2-0.7,0.5-1.3,0.9-1.8c0.4-0.5,0.9-0.9,1.5-1.1c0.6-0.3,1.3-0.4,2.1-0.4c1.3,0,2.3,0.3,3,1
			c0.1,0.1,0.3,0.3,0.4,0.4c0.1,0.1,0.2,0.3,0.3,0.4c0.1,0.1,0.2,0.3,0.2,0.5c0.1,0.2,0.1,0.4,0.2,0.7h2.1c-0.1-0.4-0.2-0.7-0.3-1
			c-0.1-0.3-0.2-0.5-0.3-0.8c-0.1-0.2-0.2-0.4-0.4-0.7c-0.1-0.2-0.3-0.4-0.5-0.7c-1.1-1.2-2.6-1.8-4.7-1.8c-1.1,0-2,0.2-2.9,0.6
			c-0.9,0.4-1.6,0.9-2.2,1.6c-0.6,0.7-1.1,1.5-1.4,2.4c-0.3,1-0.5,2-0.5,3.2c0,1.1,0.2,2.2,0.5,3.1c0.3,0.9,0.8,1.7,1.4,2.4
			c0.6,0.7,1.3,1.2,2.1,1.5c0.8,0.4,1.8,0.5,2.8,0.5c1,0,1.8-0.2,2.6-0.5c0.7-0.3,1.4-0.9,2.1-1.7l0.5,1.8h1.3v-7.8h-6.4V94.1z"/>
		<rect x="36.6" y="85.6" class="st0" width="2" height="14.7"/>
		<polygon class="st0" points="40.6,87.5 45.5,87.5 45.5,100.4 47.5,100.4 47.5,87.5 52.4,87.5 52.4,85.6 40.6,85.6 		"/>
		<path class="st0" d="M58.6,85.6l-5.7,14.7h2.2l1.6-4.4h5.7l1.5,4.4H66l-5.3-14.7H58.6z M57.3,94.3l2.3-6.5l2.1,6.5H57.3z"/>
		<polygon class="st0" points="70,85.6 68,85.6 68,100.4 77.5,100.4 77.5,98.5 70,98.5 		"/>
		<path class="st0" d="M96.2,98.1v-1.7c0-0.5,0-1-0.1-1.4c-0.1-0.4-0.2-0.7-0.3-0.9c-0.1-0.2-0.3-0.5-0.6-0.6
			c-0.2-0.2-0.5-0.3-0.9-0.4c0.4-0.2,0.7-0.4,0.9-0.6c0.3-0.2,0.5-0.5,0.6-0.7c0.2-0.3,0.3-0.6,0.4-0.9c0.1-0.3,0.1-0.7,0.1-1.2
			c0-1.7-0.6-2.9-1.9-3.6c-0.2-0.1-0.4-0.2-0.6-0.3c-0.2-0.1-0.4-0.1-0.7-0.2s-0.5-0.1-0.9-0.1c-0.3,0-0.7,0-1.2,0H85v14.7h2v-6.3h4
			c0.8,0,1.3,0,1.7,0.1c0.9,0.2,1.4,0.9,1.4,2.2v1.8c0,0.3,0,0.7,0.1,1c0.1,0.3,0.1,0.7,0.3,1.1h2.4l-0.1-0.1
			C96.4,99.6,96.2,98.9,96.2,98.1z M93.3,91.9C93.1,91.9,93,92,92.9,92c-0.1,0-0.3,0.1-0.4,0.1c-0.2,0-0.4,0-0.6,0.1
			c-0.2,0-0.6,0-0.9,0H87v-4.8h4c1,0,1.6,0.1,2,0.3c0.4,0.2,0.7,0.4,0.9,0.8c0.2,0.4,0.3,0.8,0.3,1.3C94.3,90.8,94,91.5,93.3,91.9z"
			/>
		<polygon class="st0" points="101.6,93.7 109.6,93.7 109.6,91.8 101.6,91.8 101.6,87.5 110.2,87.5 110.2,85.6 99.6,85.6 
			99.6,100.4 110.3,100.4 110.3,98.5 101.6,98.5 		"/>
		<path class="st0" d="M121.2,92.4l-4.7-1.2c-0.3-0.1-0.6-0.2-0.8-0.3c-0.2-0.1-0.4-0.2-0.5-0.4c-0.1-0.1-0.2-0.3-0.2-0.5
			c0-0.2-0.1-0.4-0.1-0.6c0-0.4,0.1-0.7,0.2-0.9c0.2-0.3,0.4-0.5,0.6-0.7c0.3-0.2,0.6-0.3,1-0.4c0.4-0.1,0.8-0.2,1.2-0.2
			c0.3,0,0.6,0,0.9,0.1c0.3,0.1,0.6,0.1,0.8,0.2c0.3,0.1,0.5,0.2,0.7,0.4c0.2,0.1,0.4,0.3,0.5,0.5c0.1,0.1,0.1,0.2,0.2,0.3
			c0,0.1,0.1,0.2,0.1,0.3c0,0.1,0.1,0.3,0.1,0.4c0,0.2,0,0.4,0,0.6h2.1l0-0.5c0-0.3,0-0.6-0.1-0.9c0-0.3-0.1-0.5-0.2-0.7
			c-0.2-0.4-0.4-0.8-0.7-1.1c-0.3-0.3-0.7-0.6-1.1-0.8c-0.4-0.2-0.9-0.4-1.5-0.5c-0.6-0.1-1.1-0.2-1.8-0.2c-0.8,0-1.5,0.1-2.2,0.3
			c-0.6,0.2-1.2,0.5-1.7,0.9c-0.5,0.4-0.8,0.8-1.1,1.3c-0.3,0.5-0.4,1.1-0.4,1.7c0,0.9,0.2,1.6,0.7,2.2s1.2,1.1,2.2,1.4l4.5,1.1
			c0.3,0.1,0.6,0.3,0.8,0.4c0.2,0.2,0.4,0.3,0.5,0.5c0.1,0.2,0.2,0.4,0.3,0.6c0.1,0.2,0.1,0.4,0.1,0.6c0,0.4-0.1,0.7-0.3,1
			c-0.2,0.3-0.4,0.5-0.7,0.7s-0.7,0.4-1.1,0.5c-0.4,0.1-0.9,0.2-1.5,0.2c-1.4,0-2.4-0.3-3.1-0.9c-0.2-0.1-0.3-0.2-0.4-0.4
			c-0.1-0.1-0.2-0.3-0.2-0.4c-0.1-0.2-0.1-0.3-0.1-0.5c0-0.2,0-0.4,0-0.7v-0.4h-2.1v0.4c0,1.6,0.5,2.8,1.5,3.6
			c1,0.8,2.5,1.2,4.4,1.2c1,0,1.9-0.1,2.6-0.4c0.7-0.3,1.3-0.6,1.8-1c0.5-0.4,0.8-0.9,1-1.5c0.2-0.6,0.3-1.1,0.3-1.7
			C124,94.3,123,93.1,121.2,92.4z"/>
		<path class="st0" d="M137.9,87.3c-0.6-0.7-1.4-1.2-2.2-1.5c-0.9-0.4-1.9-0.5-2.9-0.5c-1.1,0-2.1,0.2-3,0.6
			c-0.9,0.4-1.6,0.9-2.3,1.6c-0.6,0.7-1.1,1.5-1.4,2.5s-0.5,2-0.5,3.2c0,1.1,0.2,2.2,0.5,3.1c0.3,0.9,0.8,1.7,1.4,2.4
			c0.6,0.7,1.4,1.2,2.2,1.5c0.9,0.4,1.8,0.5,2.9,0.5c1.2,0,2.2-0.2,3.1-0.6c0.9-0.4,1.6-1,2.3-1.7c0.6-0.7,1.1-1.5,1.4-2.5
			c0.3-1,0.5-2,0.5-3.1c0-1.1-0.2-2.2-0.5-3.1C139,88.8,138.6,88,137.9,87.3z M137.4,95.4c-0.2,0.7-0.6,1.4-1,1.9
			c-0.4,0.5-0.9,0.9-1.6,1.2s-1.3,0.4-2.1,0.4c-0.8,0-1.5-0.1-2.1-0.4c-0.6-0.3-1.2-0.6-1.6-1.1c-0.4-0.5-0.8-1.1-1-1.8
			c-0.2-0.7-0.3-1.5-0.3-2.4c0-0.9,0.1-1.8,0.3-2.5c0.2-0.7,0.5-1.3,1-1.9c0.4-0.5,1-0.9,1.6-1.1c0.6-0.3,1.3-0.4,2.2-0.4
			c0.8,0,1.5,0.1,2.1,0.4c0.6,0.3,1.1,0.6,1.6,1.1c0.4,0.5,0.8,1.1,1,1.8c0.2,0.7,0.3,1.5,0.3,2.4C137.7,93.8,137.6,94.6,137.4,95.4
			z"/>
		<path class="st0" d="M151.6,94.9c0,0.7-0.1,1.3-0.3,1.7c-0.2,0.5-0.4,0.9-0.8,1.2c-0.3,0.3-0.7,0.6-1.2,0.7
			c-0.4,0.2-0.9,0.2-1.5,0.2c-0.6,0-1.2-0.1-1.8-0.4c-0.5-0.2-1-0.6-1.3-1c-0.1-0.2-0.2-0.3-0.3-0.5s-0.1-0.4-0.2-0.6
			s-0.1-0.4-0.1-0.7c0-0.3,0-0.5,0-0.9v-9.2h-2.1V95c0,0.9,0.1,1.8,0.4,2.5c0.3,0.7,0.6,1.3,1.1,1.8c0.5,0.5,1.1,0.8,1.8,1.1
			c0.7,0.2,1.5,0.3,2.4,0.3c0.7,0,1.3-0.1,1.9-0.2c0.6-0.2,1.1-0.4,1.6-0.7c0.5-0.3,0.9-0.7,1.2-1.2c0.3-0.5,0.6-1,0.8-1.6
			c0.2-0.6,0.2-1.2,0.2-2v-9.3h-2.1V94.9z"/>
		<path class="st0" d="M168.2,98.1v-1.7c0-0.5,0-1-0.1-1.4c-0.1-0.4-0.2-0.7-0.3-0.9c-0.1-0.2-0.3-0.5-0.6-0.6
			c-0.2-0.2-0.5-0.3-0.9-0.4c0.4-0.2,0.7-0.4,0.9-0.6c0.3-0.2,0.5-0.5,0.6-0.7c0.2-0.3,0.3-0.6,0.4-0.9c0.1-0.3,0.1-0.7,0.1-1.2
			c0-1.7-0.6-2.9-1.9-3.6c-0.2-0.1-0.4-0.2-0.6-0.3c-0.2-0.1-0.4-0.1-0.7-0.2c-0.3,0-0.5-0.1-0.9-0.1c-0.3,0-0.7,0-1.2,0H157v14.7h2
			v-6.3h4c0.8,0,1.3,0,1.7,0.1c0.9,0.2,1.4,0.9,1.4,2.2v1.8c0,0.3,0,0.7,0.1,1c0.1,0.3,0.1,0.7,0.3,1.1h2.4l-0.1-0.1
			C168.3,99.6,168.2,98.9,168.2,98.1z M165.2,91.9c-0.1,0.1-0.3,0.1-0.4,0.2c-0.1,0-0.3,0.1-0.4,0.1c-0.2,0-0.4,0-0.6,0.1
			c-0.2,0-0.6,0-0.9,0H159v-4.8h4c1,0,1.6,0.1,2,0.3c0.4,0.2,0.7,0.4,0.9,0.8c0.2,0.4,0.3,0.8,0.3,1.3
			C166.3,90.8,165.9,91.5,165.2,91.9z"/>
		<path class="st0" d="M174,88.7c0.4-0.5,0.9-0.9,1.5-1.1c0.6-0.3,1.3-0.4,2-0.4c1.3,0,2.3,0.3,3,1c0.2,0.2,0.3,0.3,0.4,0.4
			c0.1,0.1,0.2,0.3,0.3,0.4s0.1,0.3,0.2,0.5c0.1,0.2,0.1,0.4,0.2,0.7h2.1c-0.1-0.8-0.3-1.4-0.6-2c-0.3-0.6-0.8-1.1-1.3-1.5
			c-0.5-0.4-1.2-0.7-1.9-1c-0.7-0.2-1.5-0.3-2.4-0.3c-0.9,0-1.8,0.1-2.4,0.4c-0.3,0.1-0.7,0.3-1,0.5c-0.3,0.2-0.7,0.5-1,0.8
			c-1.6,1.4-2.3,3.4-2.3,6.2c0,1.2,0.2,2.2,0.5,3.1c0.3,0.9,0.8,1.7,1.3,2.4c0.6,0.6,1.3,1.1,2.1,1.5c0.8,0.3,1.8,0.5,2.8,0.5
			c2.1,0,3.8-0.8,5-2.4c0.6-0.9,1.1-2,1.3-3.3h-2.1c-0.2,1.2-0.6,2.2-1.4,2.9c-0.7,0.7-1.7,1-2.8,1c-0.7,0-1.4-0.1-1.9-0.4
			c-0.6-0.3-1-0.7-1.4-1.1c-0.4-0.5-0.7-1.1-0.9-1.8c-0.2-0.7-0.3-1.5-0.3-2.4c0-0.9,0.1-1.8,0.3-2.5
			C173.2,89.8,173.5,89.2,174,88.7z"/>
		<polygon class="st0" points="188.2,93.7 196.2,93.7 196.2,91.8 188.2,91.8 188.2,87.5 196.8,87.5 196.8,85.6 186.2,85.6 
			186.2,100.4 196.9,100.4 196.9,98.5 188.2,98.5 		"/>
		<path class="st0" d="M207.8,92.4l-4.7-1.2c-0.3-0.1-0.6-0.2-0.8-0.3c-0.2-0.1-0.4-0.2-0.5-0.4c-0.1-0.1-0.2-0.3-0.2-0.5
			c0-0.2-0.1-0.4-0.1-0.6c0-0.4,0.1-0.7,0.2-0.9c0.2-0.3,0.4-0.5,0.6-0.7c0.3-0.2,0.6-0.3,1-0.4c0.4-0.1,0.8-0.2,1.2-0.2
			c0.3,0,0.6,0,0.9,0.1c0.3,0.1,0.6,0.1,0.8,0.2c0.3,0.1,0.5,0.2,0.7,0.4c0.2,0.1,0.4,0.3,0.5,0.5c0.1,0.1,0.1,0.2,0.2,0.3
			c0,0.1,0.1,0.2,0.1,0.3c0,0.1,0.1,0.3,0.1,0.4c0,0.2,0,0.4,0,0.6h2.1l0-0.5c0-0.3,0-0.6-0.1-0.9c0-0.3-0.1-0.5-0.2-0.7
			c-0.2-0.4-0.4-0.8-0.7-1.1c-0.3-0.3-0.7-0.6-1.1-0.8c-0.4-0.2-0.9-0.4-1.5-0.5c-0.6-0.1-1.1-0.2-1.8-0.2c-0.8,0-1.5,0.1-2.2,0.3
			c-0.6,0.2-1.2,0.5-1.7,0.9c-0.5,0.4-0.8,0.8-1.1,1.3c-0.3,0.5-0.4,1.1-0.4,1.7c0,0.9,0.2,1.6,0.7,2.2s1.2,1.1,2.2,1.4l4.5,1.1
			c0.3,0.1,0.6,0.3,0.8,0.4c0.2,0.2,0.4,0.3,0.5,0.5c0.1,0.2,0.2,0.4,0.3,0.6c0.1,0.2,0.1,0.4,0.1,0.6c0,0.4-0.1,0.7-0.3,1
			c-0.2,0.3-0.4,0.5-0.7,0.7c-0.3,0.2-0.7,0.4-1.1,0.5c-0.4,0.1-0.9,0.2-1.5,0.2c-1.4,0-2.4-0.3-3.1-0.9c-0.2-0.1-0.3-0.2-0.4-0.4
			c-0.1-0.1-0.2-0.3-0.2-0.4c-0.1-0.2-0.1-0.3-0.1-0.5c0-0.2,0-0.4,0-0.7v-0.4h-2.1v0.4c0,1.6,0.5,2.8,1.5,3.6
			c1,0.8,2.5,1.2,4.4,1.2c1,0,1.9-0.1,2.6-0.4c0.7-0.3,1.3-0.6,1.8-1c0.5-0.4,0.8-0.9,1-1.5c0.2-0.6,0.3-1.1,0.3-1.7
			C210.5,94.3,209.6,93.1,207.8,92.4z"/>
		<rect x="219" y="85.6" class="st0" width="2" height="14.7"/>
		<polygon class="st0" points="233.5,97.2 226.7,85.6 224.5,85.6 224.5,100.4 226.5,100.4 226.5,88.7 233.2,100.4 235.6,100.4 
			235.6,85.6 233.5,85.6 		"/>
		<polygon class="st0" points="239.1,100.4 241.1,100.4 241.1,93.7 249,93.7 249,91.8 241.1,91.8 241.1,87.5 249.7,87.5 249.7,85.6 
			239.1,85.6 		"/>
		<path class="st0" d="M263.9,87.3c-0.6-0.7-1.4-1.2-2.2-1.5c-0.9-0.4-1.9-0.5-2.9-0.5c-1.1,0-2.1,0.2-3,0.6
			c-0.9,0.4-1.6,0.9-2.3,1.6c-0.6,0.7-1.1,1.5-1.4,2.5c-0.3,1-0.5,2-0.5,3.2c0,1.1,0.2,2.2,0.5,3.1c0.3,0.9,0.8,1.7,1.4,2.4
			c0.6,0.7,1.4,1.2,2.2,1.5c0.9,0.4,1.8,0.5,2.9,0.5c1.2,0,2.2-0.2,3.1-0.6c0.9-0.4,1.6-1,2.3-1.7c0.6-0.7,1.1-1.5,1.4-2.5
			c0.3-1,0.5-2,0.5-3.1c0-1.1-0.2-2.2-0.5-3.1C265,88.8,264.5,88,263.9,87.3z M263.4,95.4c-0.2,0.7-0.6,1.4-1,1.9
			c-0.4,0.5-0.9,0.9-1.6,1.2s-1.3,0.4-2.1,0.4c-0.8,0-1.5-0.1-2.1-0.4c-0.6-0.3-1.2-0.6-1.6-1.1c-0.4-0.5-0.8-1.1-1-1.8
			c-0.2-0.7-0.3-1.5-0.3-2.4c0-0.9,0.1-1.8,0.3-2.5c0.2-0.7,0.5-1.3,1-1.9c0.4-0.5,1-0.9,1.6-1.1c0.6-0.3,1.3-0.4,2.2-0.4
			c0.8,0,1.5,0.1,2.1,0.4c0.6,0.3,1.1,0.6,1.6,1.1c0.4,0.5,0.8,1.1,1,1.8c0.2,0.7,0.3,1.5,0.3,2.4C263.7,93.8,263.6,94.6,263.4,95.4
			z"/>
		<path class="st0" d="M279.5,98.1v-1.7c0-0.5,0-1-0.1-1.4c-0.1-0.4-0.1-0.7-0.3-0.9c-0.1-0.2-0.3-0.5-0.6-0.6
			c-0.2-0.2-0.5-0.3-0.9-0.4c0.4-0.2,0.7-0.4,0.9-0.6c0.3-0.2,0.5-0.5,0.6-0.7c0.2-0.3,0.3-0.6,0.4-0.9c0.1-0.3,0.1-0.7,0.1-1.2
			c0-1.7-0.6-2.9-1.9-3.6c-0.2-0.1-0.4-0.2-0.6-0.3c-0.2-0.1-0.4-0.1-0.7-0.2c-0.3,0-0.5-0.1-0.9-0.1c-0.3,0-0.7,0-1.2,0h-6.1v14.7
			h2v-6.3h4c0.8,0,1.3,0,1.7,0.1c0.9,0.2,1.4,0.9,1.4,2.2v1.8c0,0.3,0,0.7,0.1,1c0.1,0.3,0.1,0.7,0.3,1.1h2.4l-0.1-0.1
			C279.7,99.6,279.5,98.9,279.5,98.1z M276.6,91.9c-0.1,0.1-0.3,0.1-0.4,0.2c-0.1,0-0.3,0.1-0.4,0.1c-0.2,0-0.4,0-0.6,0.1
			c-0.2,0-0.6,0-0.9,0h-3.9v-4.8h4c1,0,1.6,0.1,2,0.3c0.4,0.2,0.7,0.4,0.9,0.8s0.3,0.8,0.3,1.3C277.6,90.8,277.3,91.5,276.6,91.9z"
			/>
		<polygon class="st0" points="289.6,97.9 285,85.6 282.5,85.6 282.5,100.4 284.3,100.4 284.3,88.5 288.8,100.4 290.4,100.4 
			294.7,88.5 294.7,100.4 296.5,100.4 296.5,85.6 294.1,85.6 		"/>
		<path class="st0" d="M303.7,85.6l-5.7,14.7h2.2l1.6-4.4h5.7l1.5,4.4h2.2l-5.3-14.7H303.7z M302.4,94.3l2.3-6.5l2.1,6.5H302.4z"/>
		<polygon class="st0" points="311.6,87.5 316.5,87.5 316.5,100.4 318.5,100.4 318.5,87.5 323.4,87.5 323.4,85.6 311.6,85.6 		"/>
		<rect x="325.5" y="85.6" class="st0" width="2" height="14.7"/>
		<path class="st0" d="M342.3,87.3c-0.6-0.7-1.4-1.2-2.2-1.5c-0.9-0.4-1.9-0.5-2.9-0.5c-1.1,0-2.1,0.2-3,0.6
			c-0.9,0.4-1.6,0.9-2.3,1.6c-0.6,0.7-1.1,1.5-1.4,2.5c-0.3,1-0.5,2-0.5,3.2c0,1.1,0.2,2.2,0.5,3.1c0.3,0.9,0.8,1.7,1.4,2.4
			c0.6,0.7,1.4,1.2,2.2,1.5c0.9,0.4,1.8,0.5,2.9,0.5c1.2,0,2.2-0.2,3.1-0.6c0.9-0.4,1.6-1,2.3-1.7c0.6-0.7,1.1-1.5,1.4-2.5
			c0.3-1,0.5-2,0.5-3.1c0-1.1-0.2-2.2-0.5-3.1C343.4,88.8,342.9,88,342.3,87.3z M341.7,95.4c-0.2,0.7-0.6,1.4-1,1.9
			c-0.4,0.5-0.9,0.9-1.6,1.2s-1.3,0.4-2.1,0.4c-0.8,0-1.5-0.1-2.1-0.4c-0.6-0.3-1.2-0.6-1.6-1.1c-0.4-0.5-0.8-1.1-1-1.8
			c-0.2-0.7-0.3-1.5-0.3-2.4c0-0.9,0.1-1.8,0.3-2.5c0.2-0.7,0.5-1.3,1-1.9c0.4-0.5,1-0.9,1.6-1.1c0.6-0.3,1.3-0.4,2.2-0.4
			c0.8,0,1.5,0.1,2.1,0.4c0.6,0.3,1.1,0.6,1.6,1.1c0.4,0.5,0.8,1.1,1,1.8c0.2,0.7,0.3,1.5,0.3,2.4C342.1,93.8,342,94.6,341.7,95.4z"
			/>
		<polygon class="st0" points="355.7,97.2 349,85.6 346.7,85.6 346.7,100.4 348.7,100.4 348.7,88.7 355.5,100.4 357.8,100.4 
			357.8,85.6 355.7,85.6 		"/>
		<polygon class="st0" points="365.6,87.5 370.5,87.5 370.5,100.4 372.5,100.4 372.5,87.5 377.4,87.5 377.4,85.6 365.6,85.6 		"/>
		<polygon class="st0" points="381.5,93.7 389.4,93.7 389.4,91.8 381.5,91.8 381.5,87.5 390.1,87.5 390.1,85.6 379.5,85.6 
			379.5,100.4 390.2,100.4 390.2,98.5 381.5,98.5 		"/>
		<path class="st0" d="M395.3,88.7c0.4-0.5,0.9-0.9,1.5-1.1c0.6-0.3,1.3-0.4,2-0.4c1.3,0,2.3,0.3,3,1c0.2,0.2,0.3,0.3,0.4,0.4
			c0.1,0.1,0.2,0.3,0.3,0.4c0.1,0.1,0.1,0.3,0.2,0.5c0.1,0.2,0.1,0.4,0.2,0.7h2.1c-0.1-0.8-0.3-1.4-0.6-2c-0.3-0.6-0.8-1.1-1.3-1.5
			c-0.5-0.4-1.2-0.7-1.9-1c-0.7-0.2-1.5-0.3-2.4-0.3c-0.9,0-1.8,0.1-2.4,0.4c-0.3,0.1-0.7,0.3-1,0.5c-0.3,0.2-0.7,0.5-1,0.8
			c-1.6,1.4-2.3,3.4-2.3,6.2c0,1.2,0.2,2.2,0.5,3.1c0.3,0.9,0.8,1.7,1.3,2.4c0.6,0.6,1.3,1.1,2.1,1.5c0.8,0.3,1.8,0.5,2.8,0.5
			c2.1,0,3.8-0.8,5-2.4c0.6-0.9,1.1-2,1.3-3.3h-2.1c-0.2,1.2-0.7,2.2-1.4,2.9c-0.7,0.7-1.7,1-2.8,1c-0.7,0-1.4-0.1-1.9-0.4
			c-0.6-0.3-1-0.7-1.4-1.1c-0.4-0.5-0.7-1.1-0.9-1.8c-0.2-0.7-0.3-1.5-0.3-2.4c0-0.9,0.1-1.8,0.3-2.5
			C394.6,89.8,394.9,89.2,395.3,88.7z"/>
		<polygon class="st0" points="416.6,91.7 409.6,91.7 409.6,85.6 407.6,85.6 407.6,100.4 409.6,100.4 409.6,93.5 416.6,93.5 
			416.6,100.4 418.7,100.4 418.7,85.6 416.6,85.6 		"/>
		<polygon class="st0" points="431.2,97.2 424.5,85.6 422.2,85.6 422.2,100.4 424.2,100.4 424.2,88.7 431,100.4 433.3,100.4 
			433.3,85.6 431.2,85.6 		"/>
		<path class="st0" d="M448.1,87.3c-0.6-0.7-1.4-1.2-2.2-1.5c-0.9-0.4-1.9-0.5-2.9-0.5c-1.1,0-2.1,0.2-3,0.6
			c-0.9,0.4-1.6,0.9-2.3,1.6c-0.6,0.7-1.1,1.5-1.4,2.5c-0.3,1-0.5,2-0.5,3.2c0,1.1,0.2,2.2,0.5,3.1c0.3,0.9,0.8,1.7,1.4,2.4
			c0.6,0.7,1.4,1.2,2.2,1.5c0.9,0.4,1.8,0.5,2.9,0.5c1.2,0,2.2-0.2,3.1-0.6c0.9-0.4,1.6-1,2.3-1.7c0.6-0.7,1.1-1.5,1.4-2.5
			c0.3-1,0.5-2,0.5-3.1c0-1.1-0.2-2.2-0.5-3.1C449.2,88.8,448.7,88,448.1,87.3z M447.6,95.4c-0.2,0.7-0.6,1.4-1,1.9
			c-0.4,0.5-0.9,0.9-1.6,1.2s-1.3,0.4-2.1,0.4c-0.8,0-1.5-0.1-2.1-0.4c-0.6-0.3-1.2-0.6-1.6-1.1c-0.4-0.5-0.8-1.1-1-1.8
			c-0.2-0.7-0.3-1.5-0.3-2.4c0-0.9,0.1-1.8,0.3-2.5c0.2-0.7,0.5-1.3,1-1.9c0.4-0.5,1-0.9,1.6-1.1c0.6-0.3,1.3-0.4,2.2-0.4
			c0.8,0,1.5,0.1,2.1,0.4c0.6,0.3,1.1,0.6,1.6,1.1c0.4,0.5,0.8,1.1,1,1.8c0.2,0.7,0.3,1.5,0.3,2.4C447.9,93.8,447.8,94.6,447.6,95.4
			z"/>
		<polygon class="st0" points="454.6,85.6 452.5,85.6 452.5,100.4 462,100.4 462,98.5 454.6,98.5 		"/>
		<path class="st0" d="M475.1,87.3c-0.6-0.7-1.4-1.2-2.2-1.5c-0.9-0.4-1.9-0.5-2.9-0.5c-1.1,0-2.1,0.2-3,0.6
			c-0.9,0.4-1.6,0.9-2.3,1.6c-0.6,0.7-1.1,1.5-1.4,2.5c-0.3,1-0.5,2-0.5,3.2c0,1.1,0.2,2.2,0.5,3.1c0.3,0.9,0.8,1.7,1.4,2.4
			c0.6,0.7,1.4,1.2,2.2,1.5c0.9,0.4,1.8,0.5,2.9,0.5c1.2,0,2.2-0.2,3.1-0.6c0.9-0.4,1.6-1,2.3-1.7c0.6-0.7,1.1-1.5,1.4-2.5
			c0.3-1,0.5-2,0.5-3.1c0-1.1-0.2-2.2-0.5-3.1C476.2,88.8,475.7,88,475.1,87.3z M474.6,95.4c-0.2,0.7-0.6,1.4-1,1.9
			c-0.4,0.5-0.9,0.9-1.6,1.2s-1.3,0.4-2.1,0.4c-0.8,0-1.5-0.1-2.1-0.4c-0.6-0.3-1.2-0.6-1.6-1.1c-0.4-0.5-0.8-1.1-1-1.8
			c-0.2-0.7-0.3-1.5-0.3-2.4c0-0.9,0.1-1.8,0.3-2.5c0.2-0.7,0.5-1.3,1-1.9c0.4-0.5,1-0.9,1.6-1.1c0.6-0.3,1.3-0.4,2.2-0.4
			c0.8,0,1.5,0.1,2.1,0.4c0.6,0.3,1.1,0.6,1.6,1.1c0.4,0.5,0.8,1.1,1,1.8c0.2,0.7,0.3,1.5,0.3,2.4C474.9,93.8,474.8,94.6,474.6,95.4
			z"/>
		<path class="st0" d="M485.3,94.1h4.6c0,0.7-0.1,1.3-0.2,1.7c-0.2,0.5-0.4,0.9-0.6,1.2s-0.6,0.7-1,0.9c-0.4,0.3-0.8,0.4-1.2,0.6
			s-0.9,0.2-1.4,0.2c-0.8,0-1.4-0.1-2-0.4c-0.6-0.3-1.1-0.6-1.5-1.1c-0.4-0.5-0.7-1.1-0.9-1.8c-0.2-0.7-0.3-1.5-0.3-2.4
			c0-0.9,0.1-1.7,0.3-2.5c0.2-0.7,0.5-1.3,0.9-1.8c0.4-0.5,0.9-0.9,1.5-1.1c0.6-0.3,1.3-0.4,2.1-0.4c1.3,0,2.3,0.3,3,1
			c0.1,0.1,0.3,0.3,0.4,0.4c0.1,0.1,0.2,0.3,0.3,0.4c0.1,0.1,0.2,0.3,0.2,0.5c0.1,0.2,0.1,0.4,0.2,0.7h2.1c-0.1-0.4-0.2-0.7-0.3-1
			c-0.1-0.3-0.2-0.5-0.3-0.8c-0.1-0.2-0.2-0.4-0.4-0.7c-0.1-0.2-0.3-0.4-0.5-0.7c-1.1-1.2-2.6-1.8-4.7-1.8c-1.1,0-2,0.2-2.9,0.6
			c-0.9,0.4-1.6,0.9-2.2,1.6c-0.6,0.7-1.1,1.5-1.4,2.4c-0.3,1-0.5,2-0.5,3.2c0,1.1,0.2,2.2,0.5,3.1c0.3,0.9,0.8,1.7,1.4,2.4
			c0.6,0.7,1.3,1.2,2.1,1.5c0.8,0.4,1.8,0.5,2.8,0.5c1,0,1.8-0.2,2.6-0.5c0.7-0.3,1.4-0.9,2.1-1.7l0.5,1.8h1.3v-7.8h-6.4V94.1z"/>
		<polygon class="st0" points="500.4,92.6 496.1,85.6 493.5,85.6 499.3,94.5 499.3,100.4 501.4,100.4 501.4,94.5 507,85.6 
			504.6,85.6 		"/>
	</g>
</g>
</svg>
